<?xml version="1.0" encoding="UTF-8"?>
<svg id="katman_1" xmlns="http://www.w3.org/2000/svg" viewBox="0 0 245.99 68.99">
  <defs>
    <style>
      .cls-1 {
        fill: #21aeee;
      }
    </style>
  </defs>
  <path class="cls-1" d="M101.24,1.69l-16.33,23.67h25.86l-26.25,38.92,68.44-47.06h-35.39l10.75-15.5c8.24.47,17.35-.82,25.48.35,23.59,3.38,27.27,33.05,6.77,43.3l15.78,21.92h-23.42l-12.12-20.13h-4.08l-.4.4v19.73h-67.76V1.69h32.68Z"/>
  <path class="cls-1" d="M207.6.15c48.9-3.81,51.14,66.17,6.45,68.76-47.76,2.76-50.1-65.38-6.45-68.76ZM191.6,27.82h-.82v13.34h.82v-6h9.53v6h.82v-13.34h-.82v6.12h-9.53v-6.12ZM213.22,27.82c-2.07-.12-5.5,0-7.76.02v13.31h1.09v-5.18h4.75c1.12.65,3.86,6.3,5.3,5.18l-3.81-5.03h0c4.4-.9,4.88-8.01.4-8.29l.02-.02ZM219.1,27.82v13.34h1.09v-10.08l5.85,10.08,5.85-10.08v10.08h1.09v-13.34l-.55.82h0l-6.22,10.58c-.07.15-.27.15-.37,0l-6.07-10.4-.67-1Z"/>
  <polygon class="cls-1" points="20.13 1.69 20.13 25.38 42.73 25.38 42.73 1.69 62.59 1.69 62.59 67.29 42.73 67.29 42.73 45.24 20.13 45.24 20.13 67.29 0 67.29 0 1.69 20.13 1.69"/>
  <path class="cls-1" d="M206.3,34.89v-6.32h6.87c2.89,0,2.79,3.88,1.47,5.13-.32.42-.97,1.14-1.94,1.22h-6.4v-.02Z"/>
</svg>
